<?xml version="1.0" encoding="UTF-8"?>
<svg width="80px" height="80px" viewBox="0 0 80 80" version="1.1" xmlns="http://www.w3.org/2000/svg" xmlns:xlink="http://www.w3.org/1999/xlink">
    <!-- Generator: sketchtool 52.4 (67378) - http://www.bohemiancoding.com/sketch -->
    <title>D3E136D2-9718-4DFE-92F8-E2749BC768E7</title>
    <desc>Created with sketchtool.</desc>
    <g id="Symbols" stroke="none" stroke-width="1" fill="none" fill-rule="evenodd">
        <g id="Box-icon/BasicKnowledge" fill="#2086FB" fill-rule="nonzero">
            <g id="multitask" transform="translate(0.000000, 2.000000)">
                <path d="M76.6873437,16.4596875 C76.6923437,16.35125 76.695,16.2426562 76.695,16.134375 C76.695,12.38875 73.7651562,9.314375 70.0759375,9.07984375 C67.6267187,3.69265625 62.1884375,0.14609375 56.206875,0.14609375 C49.4410937,0.14609375 43.4895312,4.66484375 41.6010937,11.0565625 C36.8614063,11.4515625 33.125,15.4334375 33.125,20.2709375 C33.125,21.13375 33.8246875,21.8334375 34.6875,21.8334375 C35.5503125,21.8334375 36.25,21.13375 36.25,20.2709375 C36.25,16.8953125 38.9984375,14.1492188 42.3765625,14.1492188 C42.4817187,14.1492188 42.59875,14.1529688 42.7339062,14.1607812 C43.5096875,14.2096875 44.1978125,13.6757812 44.3542187,12.9160938 C45.5057812,7.3271875 50.4904687,3.2709375 56.2067187,3.2709375 C61.2609375,3.2709375 65.8273437,6.45703125 67.5698437,11.19875 C67.816875,11.8710938 68.4895312,12.2871875 69.2014062,12.2135938 C69.3471875,12.1979688 69.48875,12.1903125 69.6223437,12.1903125 C71.7990625,12.1903125 73.5698437,13.9595312 73.5698437,16.1342187 C73.5698437,16.423125 73.5370312,16.7153125 73.4725,17.0028125 C73.305,17.7485937 73.7015625,18.5060938 74.4098437,18.7934375 C75.9073437,19.400625 76.8748437,20.8353125 76.8748437,22.44875 C76.8748437,24.6234375 75.1040625,26.3926562 72.9273438,26.3926562 L56.5625,26.3926562 C55.6996875,26.3926562 55,27.0923437 55,27.9551562 C55,28.8179687 55.6996875,29.5176562 56.5625,29.5176562 L72.9275,29.5176562 C76.8271875,29.5176562 80,26.3465625 80,22.44875 C80,19.9753125 78.7323437,17.7364062 76.6873437,16.4596875 Z" id="Shape"></path>
                <path d="M65.509375,16.0654688 C65.21875,15.775 64.8171875,15.6076562 64.4046875,15.6076562 C63.99375,15.6076562 63.590625,15.7748437 63.3001563,16.0654688 C63.0095312,16.3560937 62.8421875,16.7592188 62.8421875,17.1701563 C62.8421875,17.5826563 63.009375,17.9842188 63.3001563,18.2748438 C63.590625,18.5653125 63.99375,18.7326563 64.4046875,18.7326563 C64.815625,18.7326563 65.2185937,18.5653125 65.509375,18.2748438 C65.8015625,17.9842188 65.9671875,17.5825 65.9671875,17.1701563 C65.9671875,16.7592188 65.8015625,16.35625 65.509375,16.0654688 Z" id="Shape"></path>
                <path d="M57.6654688,16.065625 C57.3732813,15.7751562 56.971875,15.6078125 56.5609375,15.6078125 C56.1482812,15.6078125 55.746875,15.775 55.4546875,16.065625 C55.1640625,16.35625 54.9984375,16.759375 54.9984375,17.1703125 C54.9984375,17.5828125 55.1640625,17.984375 55.4546875,18.275 C55.746875,18.5654687 56.1498438,18.7328125 56.5609375,18.7328125 C56.971875,18.7328125 57.3732813,18.565625 57.6654688,18.275 C57.9560938,17.984375 58.1217188,17.5826562 58.1217188,17.1703125 C58.1217187,16.759375 57.9560937,16.35625 57.6654688,16.065625 Z" id="Shape"></path>
                <path d="M49.8203125,16.0654688 C49.5298438,15.775 49.1267187,15.6076562 48.7157812,15.6076562 C48.3046875,15.6076562 47.9015625,15.7748437 47.6095313,16.0654688 C47.3189062,16.3560937 47.1532812,16.7592188 47.1532812,17.1701563 C47.1532812,17.5826563 47.3189062,17.9842188 47.6095313,18.2748438 C47.9015625,18.5653125 48.3046875,18.7326563 48.7157812,18.7326563 C49.1265625,18.7326563 49.5296875,18.5653125 49.8203125,18.2748438 C50.1109375,17.9842188 50.2782812,17.5810938 50.2782812,17.1701563 C50.2782812,16.7592188 50.1110938,16.35625 49.8203125,16.0654688 Z" id="Shape"></path>
                <path d="M52.9017188,51.1396875 L47.4253125,49.325 L47.4253125,48.7951562 C50.5501563,46.503125 52.5840625,42.8071875 52.5840625,38.64375 L52.5840625,24.7467187 C52.5840625,23.8839062 51.884375,23.1842187 51.0215625,23.1842187 L36.4714063,23.1842187 C31.4779688,23.1842187 27.4154688,27.2465625 27.4154688,32.24 L27.4154688,38.64375 C27.4154688,42.8071875 29.4492188,46.503125 32.5740625,48.795 L32.5740625,49.3248437 L27.0976563,51.1395312 C20.8760938,53.2010937 16.6959375,58.9901562 16.6959375,65.5445312 L16.6959375,75.16625 C16.6959375,76.0290625 17.395625,76.72875 18.2584375,76.72875 L61.74125,76.72875 C62.6040625,76.72875 63.30375,76.0290625 63.30375,75.16625 L63.30375,65.5445312 C63.30375,58.9903125 59.1235937,53.20125 52.9017188,51.1396875 Z M30.540625,32.2398437 C30.5404688,28.9696875 33.2010938,26.3092187 36.4714063,26.3092187 L49.4590625,26.3092187 L49.4590625,34.1946875 C48.3460938,34.6603125 47.1417188,34.9076562 45.9267188,34.9076562 C43.0748438,34.9076562 40.4367188,33.6095312 38.6892188,31.34625 C38.3932813,30.963125 37.9367188,30.7385937 37.4525,30.7385937 C36.9684375,30.7385937 36.5117188,30.963125 36.2157813,31.3460937 C34.7926563,33.1892187 32.7790625,34.3917187 30.540625,34.775 L30.540625,32.2398437 Z M30.5404687,38.64375 L30.5404687,37.9314062 C33.1495312,37.601875 35.5575,36.4540625 37.4523437,34.6345312 C39.7203125,36.8125 42.7225,38.0326562 45.9265625,38.0326562 C47.1253125,38.0326562 48.3173438,37.854375 49.4589063,37.5120312 L49.4589063,38.64375 C49.4589063,43.8596875 45.2154687,48.1029687 39.9995313,48.1029687 C34.7835938,48.1029687 30.5404687,43.8596875 30.5404687,38.64375 Z M44.1875,50.5089062 L44.1875,52.7532812 C44.1875,55.0621875 42.3090625,56.9407812 40,56.9407812 C37.6909375,56.9407812 35.8125,55.0623437 35.8125,52.7532812 L35.8125,50.5090625 C37.1232813,50.9729687 38.5320313,51.228125 39.9996875,51.228125 C41.4676563,51.228125 42.8765625,50.9729687 44.1875,50.5089062 Z M55.9375,73.6039062 L55.9375,65.0267187 C55.9375,64.1639062 55.2378125,63.4642187 54.375,63.4642187 C53.5121875,63.4642187 52.8125,64.1639062 52.8125,65.0267187 L52.8125,73.6039062 L27.1875,73.6039062 L27.1875,65.0267187 C27.1875,64.1639062 26.4878125,63.4642187 25.625,63.4642187 C24.7621875,63.4642187 24.0625,64.1639062 24.0625,65.0267187 L24.0625,73.6039062 L19.8209375,73.6039062 L19.8209375,65.5446875 C19.8209375,60.3398437 23.1403125,55.743125 28.080625,54.1059375 L32.6875,52.5792187 L32.6875,52.7529687 C32.6875,56.7851562 35.9678125,60.0654687 40,60.0654687 C44.0321875,60.0654687 47.3125,56.7851562 47.3125,52.7529687 L47.3125,52.579375 L51.91875,54.1057812 C56.8592187,55.7429687 60.1785938,60.3396875 60.1785938,65.5445312 L60.1785938,73.6039062 L55.9375,73.6039062 Z" id="Shape"></path>
                <path d="M33.4426562,10.0007812 C32.7120312,9.71125 31.9617187,9.46 31.2007812,9.2496875 L31.2007812,6.73546875 C31.2007812,5.8728125 30.5015625,5.17328125 29.6389062,5.17296875 L21.004375,5.1696875 C21.0040625,5.1696875 21.0039062,5.1696875 21.00375,5.1696875 C20.5895312,5.1696875 20.1921875,5.33421875 19.8992187,5.6271875 C19.6059375,5.92015625 19.44125,6.3178125 19.44125,6.7321875 L19.44125,9.24875 C17.701875,9.7284375 16.0376562,10.4173437 14.47,11.3070312 L12.685625,9.5225 C12.0754687,8.91265625 11.0867187,8.91265625 10.4764062,9.521875 L4.3675,15.6240625 C4.07421875,15.9170312 3.909375,16.3145312 3.90921875,16.7290625 C3.9090625,17.1435938 4.07375,17.54125 4.366875,17.834375 L6.1546875,19.6221875 C5.26515625,21.1898437 4.57609375,22.8540625 4.09640625,24.5935937 L1.56578125,24.5935937 C0.703125,24.5935937 0.00359375,25.2928125 0.00328125,26.1554687 L5.70491063e-16,34.7898437 C-0.00015625,35.204375 0.164375,35.601875 0.4575,35.895 C0.75046875,36.1882812 1.148125,36.3529687 1.5625,36.3529687 L4.0965625,36.3529687 C4.57625,38.0923437 5.2653125,39.756875 6.15484375,41.3245312 L4.36,43.119375 C3.74984375,43.7295312 3.74984375,44.7189063 4.36,45.3292188 L10.4654687,51.4346875 C10.7584375,51.7278125 11.1557812,51.8923437 11.5703125,51.8923437 C11.9846875,51.8923437 12.3821875,51.7276562 12.6751562,51.4346875 L14.47,49.6396875 C16.4048437,50.7376562 18.486875,51.5301562 20.6757812,52.0004687 C20.7864062,52.0240625 20.8967187,52.035625 21.0054687,52.035625 C21.7260938,52.035625 22.3740625,51.5340625 22.5315625,50.8010937 C22.7129687,49.9575 22.1759375,49.1264062 21.3321875,48.9451562 C19.0985937,48.4653125 16.9948438,47.5942187 15.079375,46.3564062 C14.4609375,45.9565625 13.6470312,46.0429688 13.1264063,46.56375 L11.5701563,48.1201563 L7.674375,44.224375 L9.230625,42.668125 C9.75140625,42.1473438 9.8378125,41.33375 9.43796875,40.7151562 C8.20015625,38.7995313 7.3290625,36.6957813 6.849375,34.4621875 C6.6946875,33.7421875 6.058125,33.2279688 5.32171875,33.2279688 L3.125625,33.2279688 L3.12765625,27.7185938 L5.321875,27.7185938 C6.05828125,27.7185938 6.6946875,27.204375 6.849375,26.4845313 C7.32953125,24.250625 8.20046875,22.146875 9.43828125,20.2315625 C9.838125,19.613125 9.75171875,18.799375 9.2309375,18.2785938 L7.68234375,16.73 L11.5801562,12.8364063 L13.1265625,14.3829688 C13.6476562,14.90375 14.4610937,14.9901563 15.0795312,14.5903125 C16.995,13.3525 19.0985937,12.4815625 21.3321875,12.0015625 C22.0521875,11.8470313 22.5664062,11.2104688 22.5664062,10.4740625 L22.5664062,8.29546875 L28.0759375,8.2975 L28.0759375,10.474375 C28.0759375,11.2107812 28.5901562,11.8471875 29.31,12.001875 C30.3251563,12.2201562 31.3282812,12.524375 32.29125,12.9060937 C33.0932812,13.2235937 34.0017187,12.8314062 34.3195312,12.0292187 C34.6373437,11.226875 34.2448438,10.31875 33.4426562,10.0007812 Z" id="Shape"></path>
                <path d="M25.3125,38.9490625 C20.64375,38.9490625 16.845625,35.1507812 16.845625,30.4821875 C16.845625,27.4192187 18.5076562,24.5860937 21.1834375,23.088125 C21.9364062,22.6665625 22.2051563,21.7145312 21.7835938,20.9615625 C21.3620313,20.2085937 20.409375,19.94 19.6570313,20.3614062 C15.9951563,22.4114062 13.720625,26.289375 13.720625,30.4821875 C13.720625,36.8739062 18.9207813,42.0740625 25.3125,42.0740625 C26.1753125,42.0740625 26.875,41.374375 26.875,40.5115625 C26.875,39.64875 26.1753125,38.9490625 25.3125,38.9490625 Z" id="Shape"></path>
                <path d="M25.2978125,18.8901563 C24.4348437,18.8901563 23.7353125,19.5898438 23.7353125,20.4526562 C23.7353125,21.3154687 24.435,22.0151562 25.2978125,22.0151562 L25.3125,22.0151562 C26.1753125,22.0151562 26.8676562,21.3154687 26.8676562,20.4526562 C26.8676562,19.5898438 26.1607812,18.8901563 25.2978125,18.8901563 Z" id="Shape"></path>
                <path d="M71.5625,40.51125 C70.6996875,40.51125 70,41.2109375 70,42.07375 L70,65.1695312 L66.8229688,65.1695312 C65.9601562,65.1695312 65.2604688,65.8692187 65.2604688,66.7320312 C65.2604688,67.5948437 65.9601562,68.2945312 66.8229688,68.2945312 L71.5625,68.2945312 C72.4253125,68.2945312 73.125,67.5948437 73.125,66.7320312 L73.125,42.07375 C73.125,41.2109375 72.4253125,40.51125 71.5625,40.51125 Z" id="Shape"></path>
                <path d="M72.6670313,34.7592187 C72.3765625,34.4685937 71.9734375,34.3029687 71.5625,34.3029687 C71.1515625,34.3029687 70.7484375,34.4685937 70.4578125,34.7592187 C70.1671875,35.0496875 70,35.4528125 70,35.8654687 C70,36.2764062 70.1670313,36.6778125 70.4578125,36.97 C70.7484375,37.260625 71.1515625,37.4279687 71.5625,37.4279687 C71.9734375,37.4279687 72.3765625,37.2607813 72.6670313,36.97 C72.9576562,36.6778125 73.125,36.2764062 73.125,35.8654687 C73.125,35.4528125 72.9578125,35.0496875 72.6670313,34.7592187 Z" id="Shape"></path>
                <path d="M12.96875,65.1696875 L9.97390625,65.1696875 L9.97390625,54.478125 C9.97390625,53.6153125 9.27421875,52.915625 8.41140625,52.915625 C7.54859375,52.915625 6.84890625,53.6153125 6.84890625,54.478125 L6.84890625,66.7321875 C6.84890625,67.595 7.54859375,68.2946875 8.41140625,68.2946875 L12.96875,68.2946875 C13.8315625,68.2946875 14.53125,67.595 14.53125,66.7321875 C14.53125,65.869375 13.8315625,65.1696875 12.96875,65.1696875 Z" id="Shape"></path>
            </g>
        </g>
    </g>
</svg>