<?xml version="1.0" encoding="UTF-8"?>
<svg width="80px" height="80px" viewBox="0 0 80 80" version="1.1" xmlns="http://www.w3.org/2000/svg" xmlns:xlink="http://www.w3.org/1999/xlink">
    <!-- Generator: sketchtool 52.4 (67378) - http://www.bohemiancoding.com/sketch -->
    <title>59832D05-2D60-4F84-9F3C-836504E00D78</title>
    <desc>Created with sketchtool.</desc>
    <g id="Symbols" stroke="none" stroke-width="1" fill="none" fill-rule="evenodd">
        <g id="Box-icon/API" fill="#2086FB" fill-rule="nonzero">
            <g id="coding" transform="translate(8.000000, 0.000000)">
                <path d="M38.0024951,59.6998051 L9.22775828,59.6998051 L9.22775828,54.2131774 C9.22775828,53.5672515 8.70409357,53.0435867 8.05816764,53.0435867 C7.41224172,53.0435867 6.888577,53.5672515 6.888577,54.2131774 L6.888577,59.979883 C6.888577,61.1153216 7.81224172,62.0389864 8.94783626,62.0389864 L15.9321637,62.0389864 L15.9321637,69.3882261 C15.9321637,69.4964522 15.8440546,69.5845614 15.7358285,69.5845614 L9.90580897,69.5845614 L9.90580897,68.4266667 C9.90580897,67.0042885 8.74869396,65.8470175 7.32631579,65.8470175 L2.67134503,65.8470175 C1.24896686,65.8470175 0.0916959064,67.0041326 0.0916959064,68.4266667 L0.0916959064,73.0816374 C0.0916959064,74.5040156 1.24881092,75.6612865 2.67134503,75.6612865 L7.32631579,75.6612865 C8.74869396,75.6612865 9.90580897,74.5041715 9.90580897,73.0816374 L9.90580897,71.9237427 L15.7358285,71.9237427 C17.1338791,71.9237427 18.271345,70.7862768 18.271345,69.3882261 L18.271345,62.0389864 L31.2670565,62.0389864 L31.2670565,70.0299415 L30.1091618,70.0299415 C28.6867836,70.0299415 27.5295127,71.1870565 27.5295127,72.6095906 L27.5295127,77.2645614 C27.5295127,78.6869396 28.6866277,79.8442105 30.1091618,79.8442105 L34.7641326,79.8442105 C36.1865107,79.8442105 37.3437817,78.6870955 37.3437817,77.2645614 L37.3437817,72.6095906 C37.3437817,71.1872125 36.1866667,70.0299415 34.7641326,70.0299415 L33.6062378,70.0299415 L33.6062378,62.0389864 L38.0024951,62.0389864 C38.6484211,62.0389864 39.1720858,61.5153216 39.1720858,60.8693957 C39.1720858,60.2234698 38.6484211,59.6998051 38.0024951,59.6998051 Z M7.56662768,73.0816374 C7.56662768,73.214191 7.4588694,73.3221053 7.32631579,73.3221053 L2.67134503,73.3221053 C2.53879142,73.3221053 2.43087719,73.214347 2.43087719,73.0816374 L2.43087719,68.4266667 C2.43087719,68.2941131 2.53863548,68.1861988 2.67134503,68.1861988 L7.32631579,68.1861988 C7.4588694,68.1861988 7.56662768,68.2939571 7.56662768,68.4266667 L7.56662768,73.0816374 Z M34.7639766,72.3691228 C34.8966862,72.3691228 35.0044444,72.477037 35.0044444,72.6095906 L35.0044444,77.2645614 C35.0044444,77.397115 34.8966862,77.5050292 34.7639766,77.5050292 L30.1090058,77.5050292 C29.9764522,77.5050292 29.868538,77.397271 29.868538,77.2645614 L29.868538,72.6095906 C29.868538,72.477037 29.9762963,72.3691228 30.1090058,72.3691228 L34.7639766,72.3691228 Z" id="Shape"></path>
                <path d="M38.1475244,21.6155945 L14.5975828,21.6155945 C13.9516569,21.6155945 13.4279922,22.1392593 13.4279922,22.7851852 C13.4279922,23.4311111 13.9516569,23.9547758 14.5975828,23.9547758 L38.1475244,23.9547758 C38.7934503,23.9547758 39.317115,23.4311111 39.317115,22.7851852 C39.317115,22.1392593 38.7934503,21.6155945 38.1475244,21.6155945 Z" id="Shape"></path>
                <path d="M43.0958285,21.4158285 C42.4499025,21.4158285 41.9262378,21.9394932 41.9262378,22.5854191 L41.9262378,22.7131384 C41.9262378,23.3592203 42.4499025,23.882729 43.0958285,23.882729 C43.7417544,23.882729 44.2654191,23.3590643 44.2654191,22.7131384 L44.2654191,22.5854191 C44.2654191,21.9394932 43.7417544,21.4158285 43.0958285,21.4158285 Z" id="Shape"></path>
                <path d="M46.6853801,21.4158285 C46.0394542,21.4158285 45.5157895,21.9394932 45.5157895,22.5854191 L45.5157895,22.7131384 C45.5157895,23.3592203 46.0394542,23.882729 46.6853801,23.882729 C47.331306,23.882729 47.8549708,23.3590643 47.8549708,22.7131384 L47.8549708,22.5854191 C47.8549708,21.9394932 47.331306,21.4158285 46.6853801,21.4158285 Z" id="Shape"></path>
                <path d="M50.2749318,21.4158285 C49.6290058,21.4158285 49.1053411,21.9394932 49.1053411,22.5854191 L49.1053411,22.7131384 C49.1053411,23.3592203 49.6290058,23.882729 50.2749318,23.882729 C50.9208577,23.882729 51.4445224,23.3590643 51.4445224,22.7131384 L51.4445224,22.5854191 C51.4445224,21.9394932 50.9208577,21.4158285 50.2749318,21.4158285 Z" id="Shape"></path>
                <path d="M62.2021053,4.18276803 L57.5471345,4.18276803 C56.1247563,4.18276803 54.9676413,5.33988304 54.9676413,6.76241715 L54.9676413,7.92031189 L49.1376218,7.92031189 C47.7395712,7.92031189 46.6021053,9.05777778 46.6021053,10.4558285 L46.6021053,17.8053801 L33.6062378,17.8053801 L33.6062378,9.81411306 L34.7641326,9.81411306 C36.1865107,9.81411306 37.3437817,8.65699805 37.3437817,7.23446394 L37.3437817,2.57949318 C37.3436257,1.15711501 36.1865107,0 34.7641326,0 L30.1091618,0 C28.6867836,0 27.5295127,1.15711501 27.5295127,2.57964912 L27.5295127,7.23461988 C27.5295127,8.65699805 28.6866277,9.81426901 30.1091618,9.81426901 L31.2670565,9.81426901 L31.2670565,17.8055361 L18.271345,17.8055361 L18.271345,10.4558285 C18.271345,9.05777778 17.1338791,7.92031189 15.7358285,7.92031189 L9.90580897,7.92031189 L9.90580897,6.76241715 C9.90580897,5.34003899 8.74869396,4.18276803 7.32631579,4.18276803 L2.67134503,4.18276803 C1.24896686,4.18276803 0.0916959064,5.33988304 0.0916959064,6.76241715 L0.0916959064,11.4173879 C0.0916959064,12.8397661 1.24881092,13.997037 2.67134503,13.997037 L7.32631579,13.997037 C8.74869396,13.997037 9.90580897,12.839922 9.90580897,11.4173879 L9.90580897,10.2594932 L15.7358285,10.2594932 C15.8440546,10.2594932 15.9321637,10.3476023 15.9321637,10.4558285 L15.9321637,17.8053801 L10.0043665,17.8053801 C8.28631579,17.8053801 6.888577,19.2031189 6.888577,20.9210136 L6.888577,49.4384405 C6.888577,50.0843665 7.41224172,50.6080312 8.05816764,50.6080312 C8.70409357,50.6080312 9.22775828,50.0843665 9.22775828,49.4384405 L9.22775828,27.4933333 L55.6447563,27.4933333 L55.6447563,32.1805848 C55.6447563,32.8265107 56.1684211,33.3501754 56.814347,33.3501754 C57.4602729,33.3501754 57.9839376,32.8265107 57.9839376,32.1805848 L57.9839376,20.9210136 C57.9839376,19.202963 56.5861988,17.8053801 54.8681481,17.8053801 L48.9411306,17.8053801 L48.9411306,10.4558285 C48.9411306,10.3476023 49.0292398,10.2594932 49.1374659,10.2594932 L54.9674854,10.2594932 L54.9674854,11.4173879 C54.9674854,12.8397661 56.1246004,13.997037 57.5469786,13.997037 L62.2019493,13.997037 C63.6243275,13.997037 64.7815984,12.839922 64.7815984,11.4173879 L64.7815984,6.76241715 C64.7815984,5.34003899 63.6244834,4.18276803 62.2021053,4.18276803 Z M7.56662768,11.417232 C7.56662768,11.5497856 7.4588694,11.6576998 7.32631579,11.6576998 L2.67134503,11.6576998 C2.53879142,11.6576998 2.43087719,11.5499415 2.43087719,11.417232 L2.43087719,6.76226121 C2.43087719,6.6297076 2.53863548,6.52179337 2.67134503,6.52179337 L7.32631579,6.52179337 C7.4588694,6.52179337 7.56662768,6.62955166 7.56662768,6.76226121 L7.56662768,11.417232 Z M30.1093177,7.47493177 C29.9766082,7.47493177 29.8688499,7.36701754 29.8688499,7.23446394 L29.8688499,2.57949318 C29.8688499,2.44693957 29.9766082,2.33902534 30.1093177,2.33902534 L34.7642885,2.33902534 C34.8968421,2.33902534 35.0047563,2.44678363 35.0047563,2.57949318 L35.0047563,7.23446394 C35.0047563,7.36701754 34.8969981,7.47493177 34.7642885,7.47493177 L30.1093177,7.47493177 Z M54.8681481,20.1445614 C55.2963743,20.1445614 55.6447563,20.4929435 55.6447563,20.9210136 L55.6447563,25.154152 L9.22775828,25.154152 L9.22775828,20.9210136 C9.22775828,20.4927875 9.57614035,20.1445614 10.0043665,20.1445614 L54.8681481,20.1445614 Z M62.4424172,11.417232 C62.4424172,11.5497856 62.3346589,11.6576998 62.2019493,11.6576998 L57.5469786,11.6576998 C57.414425,11.6576998 57.3066667,11.5499415 57.3066667,11.417232 L57.3066667,6.76226121 C57.3066667,6.6297076 57.414425,6.52179337 57.5469786,6.52179337 L62.2019493,6.52179337 C62.3345029,6.52179337 62.4424172,6.62955166 62.4424172,6.76226121 L62.4424172,11.417232 Z" id="Shape"></path>
                <path d="M62.2021053,65.8471735 L57.5471345,65.8471735 C56.1247563,65.8471735 54.9676413,67.0042885 54.9676413,68.4268226 L54.9676413,69.5847173 L49.1376218,69.5847173 C49.0293957,69.5847173 48.9412865,69.4966082 48.9412865,69.3883821 L48.9412865,62.0391423 L55.9249903,62.0391423 C57.0604288,62.0391423 57.9842495,61.1154776 57.9842495,59.980039 L57.9842495,36.9553216 C57.9842495,36.3093957 57.4605848,35.785731 56.8146589,35.785731 C56.1687329,35.785731 55.6450682,36.3093957 55.6450682,36.9553216 L55.6450682,59.699961 L42.7773879,59.699961 C42.131462,59.699961 41.6077973,60.2236257 41.6077973,60.8695517 C41.6077973,61.5154776 42.131462,62.0391423 42.7773879,62.0391423 L46.6021053,62.0391423 L46.6021053,69.3883821 C46.6021053,70.7864327 47.7395712,71.9238986 49.1376218,71.9238986 L54.9676413,71.9238986 L54.9676413,73.0817934 C54.9676413,74.5041715 56.1247563,75.6614425 57.5471345,75.6614425 L62.2021053,75.6614425 C63.6244834,75.6614425 64.7817544,74.5043275 64.7817544,73.0817934 L64.7817544,68.4268226 C64.7815984,67.0044444 63.6244834,65.8471735 62.2021053,65.8471735 Z M62.4424172,73.0816374 C62.4424172,73.214191 62.3346589,73.3221053 62.2019493,73.3221053 L57.5469786,73.3221053 C57.414425,73.3221053 57.3066667,73.214347 57.3066667,73.0816374 L57.3066667,68.4266667 C57.3066667,68.2941131 57.414425,68.1861988 57.5469786,68.1861988 L62.2019493,68.1861988 C62.3345029,68.1861988 62.4424172,68.2939571 62.4424172,68.4266667 L62.4424172,73.0816374 Z" id="Shape"></path>
                <path d="M17.651462,43.1993762 L22.0249513,38.8258869 C22.4817154,38.3689669 22.4817154,37.6283821 22.0249513,37.1716179 C21.5681871,36.7148538 20.8276023,36.7148538 20.3709942,37.1716179 L15.1703704,42.3722417 C14.7136062,42.8290058 14.7136062,43.5695906 15.1703704,44.0261988 L20.3709942,49.2268226 C20.5992982,49.4551267 20.8987135,49.5694347 21.1979727,49.5694347 C21.497232,49.5694347 21.7966472,49.4552827 22.0249513,49.2268226 C22.4817154,48.7700585 22.4817154,48.0294737 22.0249513,47.5728655 L17.651462,43.1993762 Z" id="Shape"></path>
                <path d="M49.702924,42.3722417 L44.5023002,37.1716179 C44.0455361,36.7148538 43.3049513,36.7148538 42.8483431,37.1716179 C42.3915789,37.6283821 42.3915789,38.3689669 42.8483431,38.825575 L47.2218324,43.1990643 L42.8483431,47.5725536 C42.3915789,48.0294737 42.3915789,48.7700585 42.8483431,49.2268226 C43.0766472,49.4551267 43.3760624,49.5694347 43.6753216,49.5694347 C43.9745809,49.5694347 44.2739961,49.4552827 44.5023002,49.2268226 L49.702924,44.0261988 C50.1596881,43.5694347 50.1596881,42.8288499 49.702924,42.3722417 Z" id="Shape"></path>
                <path d="M31.3467446,37.6578558 C30.7769201,37.3536062 30.06846,37.568655 29.7640546,38.1386355 L24.5777778,47.8488889 C24.2735283,48.4185575 24.4887329,49.1271735 25.0585575,49.4315789 C25.2339961,49.5253021 25.4225341,49.5697466 25.608577,49.5697466 C26.0263548,49.5697466 26.4305653,49.3453411 26.6412476,48.9509552 L31.8275244,39.2407018 C32.1317739,38.6708772 31.9165692,37.9622612 31.3467446,37.6578558 Z" id="Shape"></path>
                <path d="M32.1060429,46.9835478 C31.460117,46.9835478 30.9364522,47.5072125 30.9364522,48.1531384 L30.9364522,48.2711891 C30.9364522,48.917115 31.460117,49.4407797 32.1060429,49.4407797 C32.7519688,49.4407797 33.2756335,48.917115 33.2756335,48.2711891 L33.2756335,48.1531384 C33.2756335,47.5072125 32.7519688,46.9835478 32.1060429,46.9835478 Z" id="Shape"></path>
                <path d="M35.9154776,46.9835478 C35.2695517,46.9835478 34.7458869,47.5072125 34.7458869,48.1531384 L34.7458869,48.2711891 C34.7458869,48.917115 35.2695517,49.4407797 35.9154776,49.4407797 C36.5614035,49.4407797 37.0850682,48.917115 37.0850682,48.2711891 L37.0850682,48.1531384 C37.0850682,47.5072125 36.5614035,46.9835478 35.9154776,46.9835478 Z" id="Shape"></path>
                <path d="M39.7247563,46.9835478 C39.0788304,46.9835478 38.5551657,47.5072125 38.5551657,48.1531384 L38.5551657,48.2711891 C38.5551657,48.917115 39.0788304,49.4407797 39.7247563,49.4407797 C40.3706823,49.4407797 40.894347,48.917115 40.894347,48.2711891 L40.894347,48.1531384 C40.894347,47.5072125 40.3706823,46.9835478 39.7247563,46.9835478 Z" id="Shape"></path>
            </g>
        </g>
    </g>
</svg>