<?xml version="1.0" encoding="UTF-8"?>
<svg width="80px" height="80px" viewBox="0 0 80 80" version="1.1" xmlns="http://www.w3.org/2000/svg" xmlns:xlink="http://www.w3.org/1999/xlink">
    <!-- Generator: sketchtool 52.4 (67378) - http://www.bohemiancoding.com/sketch -->
    <title>1D91EF5F-8FF9-4CAD-9B08-1CBE760E0F93</title>
    <desc>Created with sketchtool.</desc>
    <g id="Symbols" stroke="none" stroke-width="1" fill="none" fill-rule="evenodd">
        <g id="Box-icon/Installation" fill="#2086FB" fill-rule="nonzero">
            <g id="website" transform="translate(0.000000, 1.000000)">
                <path d="M74.6653125,0.08328125 L5.3346875,0.08328125 C2.39328125,0.08328125 0,2.47671875 0,5.41796875 L0,49.4165625 C0,50.1525 0.59734375,50.7498437 1.33328125,50.7498437 L78.6665625,50.7498437 C79.4025,50.7498437 79.9998437,50.1525 79.9998437,49.4165625 L79.9998437,5.41796875 C80,2.47671875 77.6067187,0.08328125 74.6653125,0.08328125 Z M77.3332812,48.0832812 L2.66671875,48.0832812 L2.66671875,5.41796875 C2.66671875,3.9459375 3.8640625,2.75 5.3346875,2.75 L74.6653125,2.75 C76.1359375,2.75 77.3332812,3.9459375 77.3332812,5.41796875 L77.3332812,48.0832812 Z" id="Shape"></path>
                <path d="M78.6667188,48.0832812 L1.33328125,48.0832812 C0.59734375,48.0832812 0,48.680625 0,49.4165625 L0,56.081875 C0,59.0232812 2.39328125,61.4165625 5.3346875,61.4165625 L74.6653125,61.4165625 C77.6067187,61.4165625 80,59.0232812 80,56.081875 L80,49.4165625 C80,48.680625 79.4026563,48.0832812 78.6667188,48.0832812 Z M77.3332812,56.0820312 C77.3332812,57.5540625 76.1359375,58.75 74.6653125,58.75 L5.3346875,58.75 C3.8640625,58.75 2.66671875,57.5540625 2.66671875,56.0820312 L2.66671875,50.75 L77.3334375,50.75 L77.3334375,56.0820312 L77.3332812,56.0820312 Z" id="Shape"></path>
                <path d="M44,53.4167188 L36,53.4167188 C35.2640625,53.4167188 34.6667188,54.0140625 34.6667188,54.75 C34.6667188,55.4859375 35.2640625,56.0832813 36,56.0832813 L44,56.0832813 C44.7359375,56.0832813 45.3332813,55.4859375 45.3332813,54.75 C45.3332813,54.0140625 44.7359375,53.4167188 44,53.4167188 Z" id="Shape"></path>
                <path d="M73.3332813,5.41671875 L6.66671875,5.41671875 C5.93078125,5.41671875 5.3334375,6.0140625 5.3334375,6.75 L5.3334375,49.4167188 C5.3334375,50.1526562 5.93078125,50.75 6.66671875,50.75 L73.3334375,50.75 C74.069375,50.75 74.6667188,50.1526563 74.6667188,49.4167188 L74.6667188,6.75 C74.6667188,6.0140625 74.069375,5.41671875 73.3332813,5.41671875 Z M72,48.0832813 L8,48.0832813 L8,8.08328125 L72,8.08328125 L72,48.0832813 Z" id="Shape"></path>
                <path d="M57.3332812,69.4167188 L22.6667188,69.4167188 C20.4614062,69.4167188 18.6667188,71.2114062 18.6667188,73.4167188 C18.6667188,75.6220313 20.4614062,77.4167188 22.6667188,77.4167188 L57.3334375,77.4167188 C59.53875,77.4167188 61.3334375,75.6220313 61.3334375,73.4167188 C61.3334375,71.2114062 59.5385938,69.4167188 57.3332812,69.4167188 Z M57.3332812,74.75 L22.6667188,74.75 C21.9307812,74.75 21.3334375,74.1514062 21.3334375,73.4167187 C21.3334375,72.6820312 21.9307813,72.0834375 22.6667188,72.0834375 L57.3334375,72.0834375 C58.069375,72.0834375 58.6667187,72.6820312 58.6667187,73.4167187 C58.6667187,74.1514062 58.069375,74.75 57.3332812,74.75 Z" id="Shape"></path>
                <path d="M54.6667188,69.4167188 C50.2426562,69.4167188 48,66.2767188 48,60.0834375 C48,59.3475 47.4026563,58.7501563 46.6667188,58.7501563 L33.3334375,58.7501563 C32.5975,58.7501563 32.0001563,59.3475 32.0001563,60.0834375 C32.0001563,66.2767188 29.7575,69.4167188 25.3334375,69.4167188 C24.5975,69.4167188 24.0001563,70.0140625 24.0001563,70.75 C24.0001563,71.4859375 24.5975,72.0832812 25.3334375,72.0832812 L54.6667188,72.0832812 C55.4026563,72.0832812 56,71.4859375 56,70.75 C56,70.0140625 55.4026562,69.4167188 54.6667188,69.4167188 Z M31.8279688,69.4167188 C33.469375,67.598125 34.4359375,64.89 34.630625,61.4167188 L45.370625,61.4167188 C45.5639063,64.89 46.530625,67.598125 48.1732813,69.4167188 L31.8279688,69.4167188 Z" id="Shape"></path>
                <path d="M63.7120313,39.3685938 L60.4934375,36.15 L62.2840625,34.359375 C62.6160938,34.0273438 62.749375,33.5446875 62.6346875,33.09 C62.52,32.6353125 62.1746875,32.2753125 61.7253125,32.139375 L48.3920313,28.139375 C47.9214063,27.9979688 47.4134375,28.1273438 47.0667188,28.4740625 C46.71875,28.8207813 46.5907813,29.33 46.7320313,29.799375 L50.7320313,43.1326563 C50.8667188,43.5832813 51.2279688,43.9285938 51.6826563,44.0432813 C52.1359375,44.1553125 52.62,44.0245313 52.9520313,43.6926562 L54.8373438,41.8059375 L58.0559375,45.0259375 C58.3053125,45.2765625 58.6453125,45.4165625 58.9985938,45.4165625 C59.351875,45.4165625 59.691875,45.2765625 59.94125,45.0259375 L63.711875,41.2539062 C64.2332813,40.7326563 64.2332813,39.89 63.7120313,39.3685938 Z M58.9985938,42.1979688 L56.0679688,39.2659375 C55.7279688,38.9259375 55.2826563,38.7565625 54.8373438,38.7565625 C54.390625,38.7565625 53.9453125,38.9271875 53.6067188,39.2645313 L52.6440625,40.2271875 L49.9973438,31.4045312 L58.82,34.05125 L57.7879688,35.0832812 C57.5039063,35.3685937 57.3479688,35.7473437 57.3479688,36.15 C57.3479688,36.5540625 57.5053125,36.9353125 57.790625,37.2179687 L60.8839063,40.31125 L58.9985938,42.1979688 Z" id="Shape"></path>
                <path d="M56,10.75 L18.6667187,10.75 C17.9307812,10.75 17.3334375,11.3473437 17.3334375,12.0832812 L17.3334375,18.75 C17.3334375,19.4859375 17.9307812,20.0832812 18.6667187,20.0832812 L56,20.0832812 C56.7359375,20.0832812 57.3332812,19.4859375 57.3332812,18.75 L57.3332812,12.0832812 C57.3332812,11.3473438 56.7359375,10.75 56,10.75 Z M54.6667188,17.4167187 L20,17.4167187 L20,13.4167187 L54.6667188,13.4167187 L54.6667188,17.4167187 Z" id="Shape"></path>
                <path d="M34.6667188,25.4167188 L24,25.4167188 C23.2640625,25.4167188 22.6667188,26.0140625 22.6667188,26.75 L22.6667188,32.0832813 C22.6667188,32.8192188 23.2640625,33.4165625 24,33.4165625 L34.6667188,33.4165625 C35.4026563,33.4165625 36,32.8192187 36,32.0832813 L36,26.75 C36,26.0140625 35.4026563,25.4167188 34.6667188,25.4167188 Z M33.3332813,30.75 L25.3332812,30.75 L25.3332812,28.0832813 L33.3332813,28.0832813 L33.3332813,30.75 Z" id="Shape"></path>
                <path d="M56,10.75 L18.6667187,10.75 C17.9307812,10.75 17.3334375,11.3473437 17.3334375,12.0832813 L17.3334375,37.4165625 C17.3334375,38.1525 17.9307812,38.7498437 18.6667187,38.7498437 L50.408125,38.7498437 C50.8307812,38.7498437 51.2267187,38.55125 51.4775,38.2125 C51.7295312,37.8739063 51.806875,37.4365625 51.6854687,37.0325 L49.9975,31.4045313 L55.6175,33.09125 C56.0215625,33.2126562 56.4589062,33.1353125 56.7960937,32.8832813 C57.1346875,32.6326562 57.3334375,32.2353125 57.3334375,31.8139063 L57.3334375,12.0832813 C57.3332812,11.3473438 56.7359375,10.75 56,10.75 Z M54.6667188,30.0220312 L48.390625,28.139375 C47.92,27.9979688 47.4120313,28.1273438 47.0653125,28.4740625 C46.7173437,28.8220313 46.589375,29.33 46.730625,29.8007813 L48.6159375,36.0834375 L20,36.0834375 L20,13.4167188 L54.6667188,13.4167188 L54.6667188,30.0220312 Z" id="Shape"></path>
            </g>
        </g>
    </g>
</svg>