<?xml version="1.0" encoding="UTF-8"?>
<svg width="80px" height="80px" viewBox="0 0 80 80" version="1.1" xmlns="http://www.w3.org/2000/svg" xmlns:xlink="http://www.w3.org/1999/xlink">
    <!-- Generator: sketchtool 52.4 (67378) - http://www.bohemiancoding.com/sketch -->
    <title>CC0AB728-F732-4C1F-8E53-45B2A2C8D395</title>
    <desc>Created with sketchtool.</desc>
    <g id="Symbols" stroke="none" stroke-width="1" fill="none" fill-rule="evenodd">
        <g id="Box-icon/Tutorial" fill="#2086FB" fill-rule="nonzero">
            <g id="browser" transform="translate(0.000000, 5.000000)">
                <path d="M78.8279687,25.9151562 C79.4753125,25.9151562 79.9998437,25.3904688 79.9998437,24.7432812 L79.9998437,4.4234375 C80,2.068125 78.08375,0.151875 75.7284375,0.151875 L4.2715625,0.151875 C1.91625,0.151875 0,2.068125 0,4.4234375 L0,66.634375 C0,68.0617188 1.16125,69.2229688 2.58859375,69.2229688 L77.41125,69.2229688 C78.83875,69.2229688 79.9998437,68.0617188 79.9998437,66.634375 L79.9998437,29.5270313 C79.9998437,28.8798438 79.4753125,28.3551563 78.8279687,28.3551563 C78.180625,28.3551563 77.6560937,28.8798438 77.6560937,29.5270313 L77.6560937,66.634375 C77.6560937,66.769375 77.54625,66.8792188 77.41125,66.8792188 L2.58859375,66.8792188 C2.45359375,66.8792188 2.34375,66.769375 2.34375,66.634375 L2.34375,14.1970313 C19.5064062,14.1407813 36.8210937,14.1415625 53.8292187,14.2004688 C53.8307812,14.2004688 53.8320312,14.2004688 53.8334375,14.2004688 C54.4785938,14.2004688 55.0028125,13.6784375 55.0051562,13.0326563 C55.0075,12.3854688 54.4845312,11.8590625 53.8373437,11.8567188 C36.8265625,11.7978125 19.5090625,11.7970312 2.34375,11.8532813 L2.34375,4.4234375 C2.34375,3.36046875 3.20859375,2.495625 4.2715625,2.495625 L75.7282812,2.495625 C76.79125,2.495625 77.6560937,3.36046875 77.6560937,4.4234375 L77.6560937,11.8473438 C71.3876563,11.796875 65.2623437,11.7995313 58.9753125,11.856875 C58.328125,11.8628125 57.8082812,12.3921875 57.8140625,13.039375 C57.82,13.6829688 58.3435937,14.200625 58.9857813,14.200625 C58.9892187,14.200625 58.9929688,14.200625 58.9965625,14.200625 C65.2764062,14.1435938 71.394375,14.1409375 77.6559375,14.1914063 L77.6559375,24.7432813 C77.6560937,25.3904688 78.180625,25.9151562 78.8279687,25.9151562 Z" id="Shape"></path>
                <path d="M53.3895313,6.220625 L11.5873438,6.220625 C10.94,6.220625 10.4154688,6.7453125 10.4154688,7.3925 C10.4154688,8.0396875 10.94,8.564375 11.5873438,8.564375 L53.3895313,8.564375 C54.036875,8.564375 54.5614063,8.0396875 54.5614063,7.3925 C54.5614063,6.7453125 54.036875,6.220625 53.3895313,6.220625 Z" id="Shape"></path>
                <path d="M59.056875,5.90234375 C58.4095313,5.90234375 57.885,6.42703125 57.885,7.07421875 L57.885,7.2778125 C57.885,7.925 58.4095313,8.4496875 59.056875,8.4496875 C59.7042187,8.4496875 60.22875,7.925 60.22875,7.2778125 L60.22875,7.07421875 C60.2289063,6.42703125 59.7042188,5.90234375 59.056875,5.90234375 Z" id="Shape"></path>
                <path d="M63.7346875,5.90234375 C63.0873438,5.90234375 62.5628125,6.42703125 62.5628125,7.07421875 L62.5628125,7.2778125 C62.5628125,7.925 63.0873438,8.4496875 63.7346875,8.4496875 C64.3820312,8.4496875 64.9065625,7.925 64.9065625,7.2778125 L64.9065625,7.07421875 C64.9065625,6.42703125 64.3820312,5.90234375 63.7346875,5.90234375 Z" id="Shape"></path>
                <path d="M68.4126562,5.90234375 C67.7653125,5.90234375 67.2407812,6.42703125 67.2407812,7.07421875 L67.2407812,7.2778125 C67.2407812,7.925 67.7653125,8.4496875 68.4126562,8.4496875 C69.06,8.4496875 69.5845312,7.925 69.5845312,7.2778125 L69.5845312,7.07421875 C69.5845312,6.42703125 69.06,5.90234375 68.4126562,5.90234375 Z" id="Shape"></path>
                <path d="M32.7926563,27.3065625 L16.8128125,27.3065625 C13.8884375,27.3065625 11.5095313,29.685625 11.5095313,32.61 L11.5095313,37.6596875 C11.5095313,38.306875 12.0340625,38.8315625 12.6814063,38.8315625 C13.32875,38.8315625 13.8532813,38.306875 13.8532813,37.6596875 L13.8532813,32.61 C13.8532813,30.9779687 15.1809375,29.6503125 16.8128125,29.6503125 L32.7926563,29.6503125 C34.4245312,29.6503125 35.7521875,30.9779687 35.7521875,32.61 L35.7521875,48.5896875 C35.7521875,50.2215625 34.4245313,51.5492187 32.7926563,51.5492187 L16.8128125,51.5492187 C15.1809375,51.5492187 13.8532813,50.2215625 13.8532813,48.5896875 L13.8532813,42.4439062 C13.8532813,41.7967187 13.32875,41.2720312 12.6814063,41.2720312 C12.0340625,41.2720312 11.5095313,41.7967187 11.5095313,42.4439062 L11.5095313,48.5896875 C11.5095313,51.5139062 13.8885938,53.8929687 16.8128125,53.8929687 L32.7926563,53.8929687 C35.7170312,53.8929687 38.0959375,51.5139062 38.0959375,48.5896875 L38.0959375,32.61 C38.0960938,29.685625 35.7170312,27.3065625 32.7926563,27.3065625 Z" id="Shape"></path>
                <path d="M28.545,38.4825 L23.1626562,35.8107812 C22.4246875,35.444375 21.56625,35.485 20.8659375,35.9190625 C20.1659375,36.3532812 19.7478125,37.1042187 19.7478125,37.928125 L19.7478125,43.2715625 C19.7478125,44.0953125 20.1659375,44.8464062 20.8659375,45.280625 C21.2485937,45.5179687 21.6784375,45.6376562 22.1103125,45.6376562 C22.4685937,45.6376562 22.828125,45.5553125 23.1628125,45.3890625 L28.545,42.7173437 C29.3548437,42.3154687 29.8578125,41.5040625 29.8578125,40.6 C29.8578125,39.6959375 29.3546875,38.8845312 28.545,38.4825 Z M27.5029687,40.6178125 L22.1123437,43.293125 C22.1067187,43.2928125 22.095,43.2854688 22.0915625,43.2714063 L22.0915625,37.928125 L22.0920312,37.9189062 C22.0945312,37.9148437 22.1028125,37.9090625 22.11375,37.9090625 C22.1160937,37.9090625 22.1182812,37.9092187 22.1207812,37.9098438 L27.511875,40.5853125 C27.5151562,40.5917187 27.5151562,40.6079688 27.5029687,40.6178125 Z" id="Shape"></path>
                <path d="M52.7570312,29.5323437 L46.4207812,29.5323437 C45.7734375,29.5323437 45.2489062,30.0570313 45.2489062,30.7042187 C45.2489062,31.3514062 45.7734375,31.8760937 46.4207812,31.8760937 L52.7570312,31.8760937 C53.404375,31.8760937 53.9289062,31.3514062 53.9289062,30.7042187 C53.9289062,30.0570313 53.404375,29.5323437 52.7570312,29.5323437 Z" id="Shape"></path>
                <path d="M65.0553125,37.664375 L46.420625,37.664375 C45.7732813,37.664375 45.24875,38.1890625 45.24875,38.83625 C45.24875,39.4834375 45.7732813,40.008125 46.420625,40.008125 L65.0551562,40.008125 C65.7025,40.008125 66.2270312,39.4834375 66.2270312,38.83625 C66.2271875,38.1890625 65.7025,37.664375 65.0553125,37.664375 Z" id="Shape"></path>
                <path d="M65.0553125,43.4939062 L46.420625,43.4939062 C45.7732813,43.4939062 45.24875,44.0185937 45.24875,44.6657812 C45.24875,45.3129687 45.7732813,45.8376562 46.420625,45.8376562 L65.0551562,45.8376562 C65.7025,45.8376562 66.2270312,45.3129687 66.2270312,44.6657812 C66.2271875,44.0185937 65.7025,43.4939062 65.0553125,43.4939062 Z" id="Shape"></path>
                <path d="M65.0553125,49.3235938 L46.420625,49.3235938 C45.7732813,49.3235938 45.24875,49.8482812 45.24875,50.4954688 C45.24875,51.1426563 45.7732813,51.6673438 46.420625,51.6673438 L65.0551562,51.6673438 C65.7025,51.6673438 66.2270312,51.1426563 66.2270312,50.4954688 C66.2270312,49.8482812 65.7025,49.3235938 65.0553125,49.3235938 Z" id="Shape"></path>
            </g>
        </g>
    </g>
</svg>